<?xml version="1.0" encoding="utf-8"?>
<!-- Generator: Adobe Illustrator 26.2.0, SVG Export Plug-In . SVG Version: 6.00 Build 0)  -->
<svg version="1.1" xmlns="http://www.w3.org/2000/svg" xmlns:xlink="http://www.w3.org/1999/xlink" x="0px" y="0px"
	 viewBox="0 0 340.2 340.2" style="enable-background:new 0 0 340.2 340.2;" xml:space="preserve">
<style type="text/css">
	.st0{fill:#FFFFFF;}
	.st1{fill:#3F0B78;}
</style>
<g id="Layer_1">
</g>
<g id="logotype">
	<g>
		<g>
			<path class="st0" d="M161.3,236.6c0,0,0,4.9,0,7.2c0,3.8,3,6.8,6.8,6.8s6.8-3,6.8-6.8c0-2.3,0-7.2,0-7.2H161.3z"/>
			<path class="st1" d="M190.1,265.4v-10.8c0,0-10.4,2.2-20.4,2.2c-9.9,0-19.6-2.2-19.6-2.2v10.8c0,0,5.1,1.2,11.7,1.8v26.4
				c0,12.7,8,19.5,19,19.5c4.2,0,6.8-0.6,9.3-1.3v-11.3c-2.1,0.4-4.9,0.9-8.1,0.9c-5.6,0-7.7-3.1-7.7-8.1v-25.9
				C182.7,267,190.1,265.4,190.1,265.4z"/>
		</g>
		<g>
			<path class="st0" d="M195.9,232.2c0,0,2.5,4.3,3.6,6.2c1.9,3.3,6,4.4,9.3,2.5c3.3-1.9,4.4-6,2.5-9.3c-1.2-2-3.6-6.2-3.6-6.2
				L195.9,232.2z"/>
			<path class="st1" d="M235.4,242.7l-5.4-9.3c0,0-7.9,7.1-16.5,12.1c-8.6,5-18.1,7.9-18.1,7.9l5.4,9.3c0,0,5-1.6,11-4.3l13.2,22.9
				c6.4,11,16.7,12.9,26.2,7.4c3.7-2.1,5.6-3.9,7.3-5.8l-5.7-9.8c-1.6,1.4-3.8,3.3-6.6,4.9c-4.8,2.8-8.2,1.2-10.7-3.2l-12.9-22.4
				C229.7,247.8,235.4,242.7,235.4,242.7z"/>
		</g>
		<g>
			<path class="st0" d="M223.8,211c0,0,4.3,2.5,6.2,3.6c3.3,1.9,7.4,0.8,9.3-2.5c1.9-3.3,0.8-7.4-2.5-9.3c-2-1.2-6.2-3.6-6.2-3.6
				L223.8,211z"/>
			<path class="st1" d="M263.2,200.4l-9.3-5.4c0,0-3.3,10.1-8.3,18.7c-5,8.6-11.7,15.9-11.7,15.9l9.3,5.4c0,0,3.6-3.8,7.4-9.3
				l22.9,13.2c11,6.4,20.9,2.8,26.4-6.7c2.1-3.7,2.9-6.2,3.5-8.7l-9.8-5.7c-0.7,2-1.7,4.7-3.3,7.5c-2.8,4.8-6.5,5.1-10.9,2.6
				L257,215.1C260.8,207.7,263.2,200.4,263.2,200.4z"/>
		</g>
		<g>
			<path class="st0" d="M237.2,178.7c0,0,4.9,0,7.2,0c3.8,0,6.8-3,6.8-6.8s-3-6.8-6.8-6.8c-2.3,0-7.2,0-7.2,0V178.7z"/>
			<path class="st1" d="M266.1,149.9h-10.8c0,0,2.2,10.4,2.2,20.4c0,9.9-2.2,19.6-2.2,19.6h10.8c0,0,1.2-5.1,1.8-11.7h26.4
				c12.7,0,19.5-8,19.5-19c0-4.2-0.6-6.8-1.3-9.3h-11.3c0.4,2.1,0.9,4.9,0.9,8.1c0,5.6-3.1,7.7-8.1,7.7h-25.9
				C267.7,157.3,266.1,149.9,266.1,149.9z"/>
		</g>
		<g>
			<path class="st0" d="M232.8,144.1c0,0,4.3-2.5,6.2-3.6c3.3-1.9,4.4-6,2.5-9.3c-1.9-3.3-6-4.4-9.3-2.5c-2,1.2-6.2,3.6-6.2,3.6
				L232.8,144.1z"/>
			<path class="st1" d="M243.4,104.6L234,110c0,0,7.1,7.9,12.1,16.5c5,8.6,7.9,18.1,7.9,18.1l9.3-5.4c0,0-1.6-5-4.3-11l22.9-13.2
				c11-6.4,12.9-16.7,7.4-26.2c-2.1-3.7-3.9-5.6-5.8-7.3l-9.8,5.7c1.4,1.6,3.3,3.8,4.9,6.6c2.8,4.8,1.2,8.2-3.2,10.7l-22.4,12.9
				C248.5,110.3,243.4,104.6,243.4,104.6z"/>
		</g>
		<g>
			<path class="st0" d="M211.6,116.2c0,0,2.5-4.3,3.6-6.2c1.9-3.3,0.8-7.4-2.5-9.3c-3.3-1.9-7.4-0.8-9.3,2.5c-1.2,2-3.6,6.2-3.6,6.2
				L211.6,116.2z"/>
			<path class="st1" d="M201,76.8l-5.4,9.3c0,0,10.1,3.3,18.7,8.3c8.6,5,15.9,11.7,15.9,11.7l5.4-9.3c0,0-3.8-3.6-9.3-7.4l13.2-22.9
				c6.4-11,2.8-20.9-6.7-26.4c-3.7-2.1-6.2-2.9-8.7-3.5l-5.7,9.8c2,0.7,4.7,1.7,7.5,3.3c4.8,2.8,5.1,6.5,2.6,10.9L215.8,83
				C208.3,79.2,201,76.8,201,76.8z"/>
		</g>
		<g>
			<path class="st0" d="M179.4,102.8c0,0,0-4.9,0-7.2c0-3.8-3-6.8-6.8-6.8c-3.8,0-6.8,3-6.8,6.8c0,2.3,0,7.2,0,7.2H179.4z"/>
			<path class="st1" d="M150.5,73.9v10.8c0,0,10.4-2.2,20.4-2.2c9.9,0,19.6,2.2,19.6,2.2V73.9c0,0-5.1-1.2-11.7-1.8V45.7
				c0-12.7-8-19.5-19-19.5c-4.2,0-6.8,0.6-9.3,1.3v11.3c2.1-0.4,4.9-0.9,8.1-0.9c5.6,0,7.7,3.1,7.7,8.1v25.9
				C158,72.3,150.5,73.9,150.5,73.9z"/>
		</g>
		<g>
			<path class="st0" d="M144.7,107.2c0,0-2.5-4.3-3.6-6.2c-1.9-3.3-6-4.4-9.3-2.5c-3.3,1.9-4.4,6-2.5,9.3c1.2,2,3.6,6.2,3.6,6.2
				L144.7,107.2z"/>
			<path class="st1" d="M105.3,96.6l5.4,9.3c0,0,7.9-7.1,16.5-12.1c8.6-5,18.1-7.9,18.1-7.9l-5.4-9.3c0,0-5,1.6-11,4.3l-13.2-22.9
				c-6.4-11-16.7-12.9-26.2-7.4c-3.7,2.1-5.6,3.9-7.3,5.8l5.7,9.8c1.6-1.4,3.8-3.3,6.6-4.9c4.8-2.8,8.2-1.2,10.7,3.2L118,86.9
				C110.9,91.5,105.3,96.6,105.3,96.6z"/>
		</g>
		<g>
			<path class="st0" d="M116.9,128.4c0,0-4.3-2.5-6.2-3.6c-3.3-1.9-7.4-0.8-9.3,2.5c-1.9,3.3-0.8,7.4,2.5,9.3c2,1.2,6.2,3.6,6.2,3.6
				L116.9,128.4z"/>
			<path class="st1" d="M77.5,139l9.3,5.4c0,0,3.3-10.1,8.3-18.7c5-8.6,11.7-15.9,11.7-15.9l-9.3-5.4c0,0-3.6,3.8-7.4,9.3
				l-22.9-13.2c-11-6.4-20.9-2.8-26.4,6.7c-2.1,3.7-2.9,6.2-3.5,8.7l9.8,5.7c0.7-2,1.7-4.7,3.3-7.5c2.8-4.8,6.5-5.1,10.9-2.6
				l22.4,12.9C79.8,131.7,77.5,139,77.5,139z"/>
		</g>
		<g>
			<path class="st0" d="M103.4,160.6c0,0-4.9,0-7.2,0c-3.8,0-6.8,3-6.8,6.8c0,3.8,3,6.8,6.8,6.8c2.3,0,7.2,0,7.2,0V160.6z"/>
			<path class="st1" d="M74.6,189.5h10.8c0,0-2.2-10.4-2.2-20.4c0-9.9,2.2-19.6,2.2-19.6H74.6c0,0-1.2,5.1-1.8,11.7H46.3
				c-12.7,0-19.5,8-19.5,19c0,4.2,0.6,6.8,1.3,9.3h11.3c-0.4-2.1-0.9-4.9-0.9-8.1c0-5.6,3.1-7.7,8.1-7.7h25.9
				C73,182,74.6,189.5,74.6,189.5z"/>
		</g>
		<g>
			<path class="st0" d="M107.8,195.3c0,0-4.3,2.5-6.2,3.6c-3.3,1.9-4.4,6-2.5,9.3c1.9,3.3,6,4.4,9.3,2.5c2-1.2,6.2-3.6,6.2-3.6
				L107.8,195.3z"/>
			<path class="st1" d="M97.3,234.7l9.3-5.4c0,0-7.1-7.9-12.1-16.5c-5-8.6-7.9-18.1-7.9-18.1l-9.3,5.4c0,0,1.6,5,4.3,11l-22.9,13.2
				c-11,6.4-12.9,16.7-7.4,26.2c2.1,3.7,3.9,5.6,5.8,7.3l9.8-5.7c-1.4-1.6-3.3-3.8-4.9-6.6c-2.8-4.8-1.2-8.2,3.2-10.7L87.6,222
				C92.2,229.1,97.3,234.7,97.3,234.7z"/>
		</g>
		<g>
			<path class="st0" d="M129,223.1c0,0-2.5,4.3-3.6,6.2c-1.9,3.3-0.8,7.4,2.5,9.3s7.4,0.8,9.3-2.5c1.2-2,3.6-6.2,3.6-6.2L129,223.1z
				"/>
			<path class="st1" d="M139.6,262.5l5.4-9.3c0,0-10.1-3.3-18.7-8.3c-8.6-5-15.9-11.7-15.9-11.7l-5.4,9.3c0,0,3.8,3.6,9.3,7.4
				L101,272.9c-6.4,11-2.8,20.9,6.7,26.4c3.7,2.1,6.2,2.9,8.7,3.5l5.7-9.8c-2-0.7-4.7-1.7-7.5-3.3c-4.8-2.8-5.1-6.5-2.6-10.9
				l12.9-22.4C132.3,260.2,139.6,262.5,139.6,262.5z"/>
		</g>
	</g>
</g>
</svg>
