<?xml version="1.0" encoding="utf-8"?>
<!-- Generator: Adobe Illustrator 26.2.0, SVG Export Plug-In . SVG Version: 6.00 Build 0)  -->
<svg version="1.1" id="logotype" xmlns="http://www.w3.org/2000/svg" xmlns:xlink="http://www.w3.org/1999/xlink" x="0px" y="0px"
	 viewBox="0 0 425.2 116.4" style="enable-background:new 0 0 425.2 116.4;" xml:space="preserve">
<style type="text/css">
	.st0{fill:#FE5000;}
	.st1{fill:#BD4BF8;}
	.st2{fill:#FFFFFF;}
</style>
<g>
	<path class="st0" d="M16.9,0c0,0,0,7.5,0,10.9c0,5.7,4.6,10.3,10.3,10.3s10.3-4.6,10.3-10.3c0-3.5,0-10.9,0-10.9H16.9z"/>
	<path class="st1" d="M77.6,0c0,0,0,7.5,0,10.9c0,5.7,4.6,10.3,10.3,10.3s10.3-4.6,10.3-10.3c0-3.5,0-10.9,0-10.9H77.6z"/>
	<path class="st0" d="M138.4,0c0,0,0,7.5,0,10.9c0,5.7,4.6,10.3,10.3,10.3S159,16.6,159,10.9c0-3.5,0-10.9,0-10.9H138.4z"/>
	<path class="st1" d="M199.1,0c0,0,0,7.5,0,10.9c0,5.7,4.6,10.3,10.3,10.3c5.7,0,10.3-4.6,10.3-10.3c0-3.5,0-10.9,0-10.9H199.1z"/>
	<path class="st0" d="M259.8,0c0,0,0,7.5,0,10.9c0,5.7,4.6,10.3,10.3,10.3c5.7,0,10.3-4.6,10.3-10.3c0-3.5,0-10.9,0-10.9H259.8z"/>
	<path class="st1" d="M320.6,0c0,0,0,7.5,0,10.9c0,5.7,4.6,10.3,10.3,10.3c5.7,0,10.3-4.6,10.3-10.3c0-3.5,0-10.9,0-10.9H320.6z"/>
	<path class="st0" d="M381.3,0c0,0,0,7.5,0,10.9c0,5.7,4.6,10.3,10.3,10.3c5.7,0,10.3-4.6,10.3-10.3c0-3.5,0-10.9,0-10.9H381.3z"/>
	<path class="st2" d="M425.2,43.8V27.5c0,0-15.7,3.3-30.9,3.3c-15.1,0-29.8-3.3-29.8-3.3s-15.7,3.3-30.9,3.3
		c-15.1,0-29.8-3.3-29.8-3.3s-15.7,3.3-30.9,3.3c-15.1,0-29.8-3.3-29.8-3.3s-15.7,3.3-30.9,3.3c-15.1,0-29.8-3.3-29.8-3.3
		s-15.7,3.3-30.9,3.3c-15.1,0-29.8-3.3-29.8-3.3s-15.7,3.3-30.9,3.3c-15.1,0-29.8-3.3-29.8-3.3S45,30.8,29.8,30.8
		C14.7,30.8,0,27.5,0,27.5v16.3c0,0,7.8,1.8,17.8,2.7v40.2c0,19.4,12.2,29.7,28.9,29.7c6.4,0,10.3-0.9,14.1-2V97.2
		c-3.1,0.6-7.5,1.4-12.3,1.4c-8.4,0-11.7-4.7-11.7-12.3V46.9c12.7-0.7,24-3.1,24-3.1s7.8,1.8,17.8,2.7v40.2
		c0,19.4,12.2,29.7,28.9,29.7c6.4,0,10.3-0.9,14.1-2V97.2c-3.1,0.6-7.5,1.4-12.3,1.4c-8.4,0-11.7-4.7-11.7-12.3V46.9
		c12.7-0.7,24-3.1,24-3.1s7.8,1.8,17.8,2.7v40.2c0,19.4,12.2,29.7,28.9,29.7c6.4,0,10.3-0.9,14.1-2V97.2c-3.1,0.6-7.5,1.4-12.3,1.4
		c-8.4,0-11.7-4.7-11.7-12.3V46.9c12.7-0.7,24-3.1,24-3.1s7.8,1.8,17.8,2.7v40.2c0,19.4,12.2,29.7,28.9,29.7c6.4,0,10.3-0.9,14.1-2
		V97.2c-3.1,0.6-7.5,1.4-12.3,1.4c-8.4,0-11.7-4.7-11.7-12.3V46.9c12.7-0.7,24-3.1,24-3.1s7.8,1.8,17.8,2.7v40.2
		c0,19.4,12.2,29.7,28.9,29.7c6.4,0,10.3-0.9,14.1-2V97.2c-3.1,0.6-7.5,1.4-12.3,1.4c-8.4,0-11.7-4.7-11.7-12.3V46.9
		c12.7-0.7,24-3.1,24-3.1s7.8,1.8,17.8,2.7v40.2c0,19.4,12.2,29.7,28.9,29.7c6.4,0,10.3-0.9,14.1-2V97.2c-3.1,0.6-7.5,1.4-12.3,1.4
		c-8.4,0-11.7-4.7-11.7-12.3V46.9c12.7-0.7,24-3.1,24-3.1s7.8,1.8,17.8,2.7v40.2c0,19.4,12.2,29.7,28.9,29.7c6.4,0,10.3-0.9,14.1-2
		V97.2c-3.1,0.6-7.5,1.4-12.3,1.4c-8.4,0-11.7-4.7-11.7-12.3V46.9C413.9,46.2,425.2,43.8,425.2,43.8z"/>
</g>
</svg>
