<?xml version="1.0" encoding="utf-8"?>
<!-- Generator: Adobe Illustrator 26.2.0, SVG Export Plug-In . SVG Version: 6.00 Build 0)  -->
<svg version="1.1" id="Layer_1" xmlns="http://www.w3.org/2000/svg" xmlns:xlink="http://www.w3.org/1999/xlink" x="0px" y="0px"
	 viewBox="0 0 283.5 36.6" style="enable-background:new 0 0 283.5 36.6;" xml:space="preserve">
<style type="text/css">
	.st0{fill:#FF4F00;}
	.st1{fill:#BD4BF8;}
	.st2{fill:#FFFFFF;}
	.st3{fill:#400A78;}
</style>
<g>
	
		<text transform="matrix(1 0 0 1 11.9953 -105.8584)" class="st1" style="font-family:'Capitana-Thin'; font-size:32.7838px; letter-spacing:-1;">work better</text>
	<path class="st0" d="M200.1-129.9v2.3c0,1.2,1,2.2,2.2,2.2c1.2,0,2.2-1,2.2-2.2v-2.3H200.1z"/>
	<path class="st1" d="M270.3-129.9v2.3c0,1.2,1,2.2,2.2,2.2c1.2,0,2.2-1,2.2-2.2v-2.3H270.3z"/>
	<path class="st2" d="M281.5-105.9v-27.7h4v7c0,1.8-0.1,3.5-0.1,5.3c0.7-1,2.3-2.6,5.3-2.6c3,0,6.4,2,6.4,7.3v10.8h-3.9v-10.7
		c0-2.4-1.5-3.6-3.3-3.6c-1.7,0-4.4,1.7-4.4,5.6v8.7H281.5z"/>
	<path class="st2" d="M209.3-120.8v-3.4c0,0-3.3,0.7-6.5,0.7c-3.2,0-6.2-0.7-6.2-0.7v3.4c0,0,1.6,0.4,3.7,0.6v8.4
		c0,4.1,2.6,6.2,6.1,6.2c1.3,0,2.2-0.2,2.9-0.4v-3.6c-0.7,0.1-1.6,0.3-2.6,0.3c-1.8,0-2.5-1-2.5-2.6v-8.2
		C206.9-120.2,209.3-120.8,209.3-120.8"/>
	<path class="st2" d="M224-114.7c0-3.2-2.3-5.6-5.3-5.6c-2.9,0-5.3,2.5-5.3,5.6c0,3.2,2.3,5.6,5.3,5.6
		C221.7-109,224-111.5,224-114.7 M209.4-114.7c0-5.3,4.3-9.2,9.4-9.2c5,0,9.4,4,9.4,9.2c0,5.3-4.4,9.2-9.4,9.2
		C213.7-105.4,209.4-109.4,209.4-114.7"/>
	<path class="st2" d="M243.7-114.7c0-3-2.2-5.6-5.1-5.6c-3,0-5.1,2.6-5.1,5.6c0,3,2.2,5.6,5.1,5.6
		C241.6-109,243.7-111.7,243.7-114.7 M231.2-99.1v-4.1c2.3,1.3,4.4,2.2,6.9,2.2c3.9,0,5.7-1.8,5.7-5.2c0-0.6,0-1.2,0.1-1.8
		c-1.3,1.7-3.5,2.6-5.5,2.6c-5,0-8.9-4-8.9-9.2c0-5.3,3.9-9.2,8.9-9.2c2.1,0,4.5,1.2,5.6,2.7v-2.3h3.7v17.2c0,5.8-3.7,8.9-9.6,8.9
		C234.6-97.4,231.9-98.6,231.2-99.1"/>
	<path class="st2" d="M262.7-116.5c-0.2-1.8-1.6-3.8-4.6-3.8c-2.6,0-4.2,1.6-4.7,3.8H262.7z M266.8-113.4h-13.5
		c0.4,2.5,2.1,4.3,5.6,4.3c2.2,0,4-0.6,6.6-2v3.8c-0.9,0.7-3.5,1.8-6.6,1.8c-6.2,0-9.7-4.1-9.7-9.2c0-5.1,3.5-9.2,9.1-9.2
		c4,0,8.7,2.6,8.7,8.6C266.9-114.6,266.9-113.9,266.8-113.4"/>
	<path class="st2" d="M312.9-114.7c0-3-2.2-5.6-5.1-5.6c-3,0-5.1,2.6-5.1,5.6s2.2,5.6,5.1,5.6C310.8-109,312.9-111.7,312.9-114.7
		 M298.6-114.7c0-5.3,3.9-9.2,8.9-9.2c2.1,0,4.5,1,5.6,2.7v-2.3h3.7v17.6h-3.7v-2.3c-1.2,1.7-3.3,2.7-5.6,2.7
		C302.5-105.4,298.6-109.4,298.6-114.7"/>
	<path class="st2" d="M279.5-120.8v-3.4c0,0-3.3,0.7-6.5,0.7c-3.2,0-6.2-0.7-6.2-0.7v3.4c0,0,1.6,0.4,3.7,0.6v8.4
		c0,4.1,2.6,6.2,6.1,6.2c1.3,0,2.2-0.2,2.9-0.4v-3.6c-0.7,0.1-1.6,0.3-2.6,0.3c-1.8,0-2.5-1-2.5-2.6v-8.2
		C277.1-120.2,279.5-120.8,279.5-120.8"/>
</g>
<g>
	<g>
		<path class="st1" d="M0,11.1h1.7l5,13.4l5.3-13.9l5.3,13.9l5-13.4h1.6l-6.6,17.1l-5.3-13.8L6.7,28.2L0,11.1z"/>
		<path class="st1" d="M24.5,19.3c0-4.8,3.8-8.6,8.5-8.6c4.6,0,8.4,3.9,8.4,8.6c0,4.8-3.8,8.6-8.4,8.6
			C28.3,27.9,24.5,24.1,24.5,19.3z M39.9,19.3c0-3.9-3.1-7.2-6.9-7.2c-3.9,0-6.9,3.3-6.9,7.2c0,3.9,3.1,7.2,6.9,7.2
			C36.8,26.5,39.9,23.2,39.9,19.3z"/>
		<path class="st1" d="M44.5,27.5V11.1h1.4v3.8c0.8-1.9,2.5-4.1,5.8-4.1c0.9,0,1.4,0.1,1.9,0.3v1.5c-0.5-0.2-1.2-0.3-2-0.3
			c-3.5,0-5.6,3.5-5.6,8.2v7.2H44.5z"/>
		<path class="st1" d="M69.9,27.5h-2.2l-10.6-8.9v8.9h-1.5V1.2h1.5v17.4l9-7.5h2.2l-9.1,7.5L69.9,27.5z"/>
		<path class="st1" d="M78.6,23.9v3.6h-1.4V1.2h1.5v9.2c0,1.6-0.1,3-0.2,4.3c1.2-2.1,3.8-4,7-4c4.6,0,8.5,3.9,8.5,8.6
			c0,4.8-3.8,8.6-8.5,8.6C82.5,27.9,79.9,26,78.6,23.9z M92.5,19.3c0-3.9-3.1-7.2-6.9-7.2c-3.8,0-6.9,3.3-6.9,7.2
			c0,3.9,3.1,7.2,6.9,7.2C89.5,26.5,92.5,23.2,92.5,19.3z"/>
		<path class="st1" d="M97.1,19v0.4c0,3.8,2.6,7.1,6.8,7.1c2.9,0,4.9-1.3,6.4-2.6v1.8c-0.6,0.5-2.8,2.2-6.4,2.2
			c-4.9,0-8.2-3.9-8.2-8.5c0-4.8,3.3-8.7,8.1-8.7c4.8,0,7.6,3.8,7.6,7c0,0.5,0,0.9-0.1,1.3H97.1z M97.3,17.6h12.4
			c0-2.7-2.5-5.5-6.1-5.5C100.6,12.1,98,14.3,97.3,17.6z"/>
		<path class="st1" d="M115.6,22.3v-9.8h-4.1v-1.4h4.1V7.2h1.5v3.9h5.7v1.4h-5.7v9.8c0,2.7,1.2,4,3.8,4c0.7,0,1.4-0.2,1.9-0.3v1.4
			c-0.6,0.2-1.3,0.3-1.9,0.3C117.8,27.7,115.6,26.1,115.6,22.3z"/>
		<path class="st1" d="M127,22.3v-9.8h-4.1v-1.4h4.1V7.2h1.5v3.9h5.7v1.4h-5.7v9.8c0,2.7,1.2,4,3.8,4c0.7,0,1.4-0.2,1.9-0.3v1.4
			c-0.6,0.2-1.3,0.3-1.9,0.3C129.2,27.7,127,26.1,127,22.3z"/>
		<path class="st1" d="M137,19v0.4c0,3.8,2.6,7.1,6.8,7.1c2.9,0,4.9-1.3,6.4-2.6v1.8c-0.6,0.5-2.8,2.2-6.4,2.2
			c-4.9,0-8.2-3.9-8.2-8.5c0-4.8,3.3-8.7,8.1-8.7c4.8,0,7.6,3.8,7.6,7c0,0.5,0,0.9-0.1,1.3H137z M137.1,17.6h12.4
			c0-2.7-2.5-5.5-6.1-5.5C140.4,12.1,137.8,14.3,137.1,17.6z"/>
		<path class="st1" d="M154.1,27.5V11.1h1.4v3.8c0.8-1.9,2.5-4.1,5.8-4.1c0.9,0,1.4,0.1,1.9,0.3v1.5c-0.5-0.2-1.2-0.3-2-0.3
			c-3.5,0-5.6,3.5-5.6,8.2v7.2H154.1z"/>
	</g>
	<path class="st0" d="M174.7,5.1v2.1c0,1.1,0.9,2,2,2c1.1,0,2-0.9,2-2V5.1H174.7z"/>
	<path class="st1" d="M240.1,5.1v2.1c0,1.1,0.9,2,2,2s2-0.9,2-2V5.1H240.1z"/>
	<path class="st3" d="M250.6,27.5V1.7h3.7v6.5c0,1.7-0.1,3.3-0.1,4.9c0.6-0.9,2.1-2.4,4.9-2.4c2.8,0,6,1.8,6,6.8v10h-3.7v-10
		c0-2.2-1.4-3.4-3.1-3.4c-1.6,0-4.1,1.6-4.1,5.2v8.1H250.6z"/>
	<path class="st3" d="M183.2,13.6v-3.2c0,0-3.1,0.7-6,0.7c-3,0-5.8-0.7-5.8-0.7v3.2c0,0,1.5,0.3,3.5,0.5V22c0,3.8,2.4,5.8,5.6,5.8
		c1.3,0,2-0.2,2.7-0.4v-3.4c-0.6,0.1-1.5,0.3-2.4,0.3c-1.6,0-2.3-0.9-2.3-2.4v-7.7C181,14.1,183.2,13.6,183.2,13.6"/>
	<path class="st3" d="M197,19.3c0-3-2.2-5.2-4.9-5.2c-2.7,0-4.9,2.3-4.9,5.2c0,3,2.2,5.2,4.9,5.2C194.8,24.6,197,22.3,197,19.3
		 M183.3,19.3c0-4.9,4-8.6,8.7-8.6c4.7,0,8.7,3.7,8.7,8.6c0,4.9-4.1,8.6-8.7,8.6C187.4,27.9,183.3,24.2,183.3,19.3"/>
	<path class="st3" d="M215.3,19.3c0-2.8-2-5.2-4.8-5.2c-2.8,0-4.8,2.4-4.8,5.2s2,5.2,4.8,5.2C213.3,24.6,215.3,22.1,215.3,19.3
		 M203.6,33.8v-3.8c2.1,1.2,4.1,2,6.4,2c3.6,0,5.3-1.7,5.3-4.9c0-0.5,0-1.1,0.1-1.7c-1.2,1.6-3.3,2.4-5.2,2.4
		c-4.7,0-8.3-3.7-8.3-8.6c0-4.9,3.6-8.6,8.3-8.6c2,0,4.2,1.1,5.2,2.5v-2.1h3.5v16c0,5.4-3.5,8.3-9,8.3
		C206.8,35.4,204.3,34.3,203.6,33.8"/>
	<path class="st3" d="M233,17.6c-0.2-1.7-1.5-3.6-4.3-3.6c-2.4,0-3.9,1.5-4.4,3.6H233z M236.8,20.5h-12.6c0.4,2.3,1.9,4,5.2,4
		c2,0,3.8-0.6,6.2-1.8v3.5c-0.8,0.7-3.3,1.6-6.2,1.6c-5.7,0-9-3.8-9-8.6c0-4.8,3.3-8.6,8.5-8.6c3.7,0,8.1,2.4,8.1,8.1
		C236.9,19.3,236.9,20,236.8,20.5"/>
	<path class="st3" d="M279.8,19.3c0-2.8-2-5.2-4.8-5.2c-2.8,0-4.8,2.4-4.8,5.2s2,5.2,4.8,5.2C277.8,24.6,279.8,22.1,279.8,19.3
		 M266.4,19.3c0-4.9,3.6-8.6,8.3-8.6c2,0,4.2,1,5.2,2.5v-2.1h3.5v16.4H280v-2.1c-1.1,1.6-3.1,2.5-5.2,2.5
		C270.1,27.9,266.4,24.2,266.4,19.3"/>
	<path class="st3" d="M248.7,13.6v-3.2c0,0-3.1,0.7-6,0.7c-3,0-5.8-0.7-5.8-0.7v3.2c0,0,1.5,0.3,3.5,0.5V22c0,3.8,2.4,5.8,5.6,5.8
		c1.3,0,2-0.2,2.7-0.4v-3.4c-0.6,0.1-1.5,0.3-2.4,0.3c-1.6,0-2.3-0.9-2.3-2.4v-7.7C246.5,14.1,248.7,13.6,248.7,13.6"/>
</g>
</svg>
