<?xml version="1.0" encoding="utf-8"?>
<!-- Generator: Adobe Illustrator 26.2.0, SVG Export Plug-In . SVG Version: 6.00 Build 0)  -->
<svg version="1.1" xmlns="http://www.w3.org/2000/svg" xmlns:xlink="http://www.w3.org/1999/xlink" x="0px" y="0px"
	 viewBox="0 0 340.2 340.2" style="enable-background:new 0 0 340.2 340.2;" xml:space="preserve">
<style type="text/css">
	.st0{fill:#FFFFFF;}
	.st1{fill:#3F0B78;}
</style>
<g id="Layer_1">
</g>
<g id="logotype">
	<g>
		<g>
			<path class="st0" d="M109,242.5c0,0,0,4.9,0,7.2c0,3.8,3,6.8,6.8,6.8s6.8-3,6.8-6.8c0-2.3,0-7.2,0-7.2H109z"/>
			<path class="st1" d="M137.8,271.4v-10.8c0,0-10.4,2.2-20.4,2.2c-9.9,0-19.6-2.2-19.6-2.2v10.8c0,0,5.1,1.2,11.7,1.8v26.4
				c0,12.7,8,19.5,19,19.5c4.2,0,6.8-0.6,9.3-1.3v-11.3c-2.1,0.4-4.9,0.9-8.1,0.9c-5.6,0-7.7-3.1-7.7-8.1v-25.9
				C130.4,273,137.8,271.4,137.8,271.4z"/>
		</g>
		<g>
			<path class="st0" d="M144.6,223.6c0,0,0,4.9,0,7.2c0,3.8,3,6.8,6.8,6.8c3.8,0,6.8-3,6.8-6.8c0-2.3,0-7.2,0-7.2H144.6z"/>
			<path class="st1" d="M173.5,252.4v-10.8c0,0-10.4,2.2-20.4,2.2c-9.9,0-19.6-2.2-19.6-2.2v10.8c0,0,5.1,1.2,11.7,1.8v26.4
				c0,12.7,8,19.5,19,19.5c4.2,0,6.8-0.6,9.3-1.3v-11.3c-2.1,0.4-4.9,0.9-8.1,0.9c-5.6,0-7.7-3.1-7.7-8.1v-25.9
				C166,254,173.5,252.4,173.5,252.4z"/>
		</g>
		<g>
			<path class="st0" d="M180.2,204.7c0,0,0,4.9,0,7.2c0,3.8,3,6.8,6.8,6.8c3.8,0,6.8-3,6.8-6.8c0-2.3,0-7.2,0-7.2H180.2z"/>
			<path class="st1" d="M209.1,233.5v-10.8c0,0-10.4,2.2-20.4,2.2c-9.9,0-19.6-2.2-19.6-2.2v10.8c0,0,5.1,1.2,11.7,1.8v26.4
				c0,12.7,8,19.5,19,19.5c4.2,0,6.8-0.6,9.3-1.3v-11.3c-2.1,0.4-4.9,0.9-8.1,0.9c-5.6,0-7.7-3.1-7.7-8.1v-25.9
				C201.6,235.1,209.1,233.5,209.1,233.5z"/>
		</g>
		<g>
			<path class="st0" d="M215.8,185.8c0,0,0,4.9,0,7.2c0,3.8,3,6.8,6.8,6.8s6.8-3,6.8-6.8c0-2.3,0-7.2,0-7.2H215.8z"/>
			<path class="st1" d="M244.7,214.6v-10.8c0,0-10.4,2.2-20.4,2.2c-9.9,0-19.6-2.2-19.6-2.2v10.8c0,0,5.1,1.2,11.7,1.8v26.4
				c0,12.7,8,19.5,19,19.5c4.2,0,6.8-0.6,9.3-1.3v-11.3c-2.1,0.4-4.9,0.9-8.1,0.9c-5.6,0-7.7-3.1-7.7-8.1v-25.9
				C237.2,216.2,244.7,214.6,244.7,214.6z"/>
		</g>
		<g>
			<path class="st0" d="M251.4,166.8c0,0,0,4.9,0,7.2c0,3.8,3,6.8,6.8,6.8s6.8-3,6.8-6.8c0-2.3,0-7.2,0-7.2H251.4z"/>
			<path class="st1" d="M280.3,195.7v-10.8c0,0-10.4,2.2-20.4,2.2c-9.9,0-19.6-2.2-19.6-2.2v10.8c0,0,5.1,1.2,11.7,1.8v26.4
				c0,12.7,8,19.5,19,19.5c4.2,0,6.8-0.6,9.3-1.3v-11.3c-2.1,0.4-4.9,0.9-8.1,0.9c-5.6,0-7.7-3.1-7.7-8.1v-25.9
				C272.9,197.3,280.3,195.7,280.3,195.7z"/>
		</g>
		<g>
			<path class="st0" d="M287.1,147.9c0,0,0,4.9,0,7.2c0,3.8,3,6.8,6.8,6.8s6.8-3,6.8-6.8c0-2.3,0-7.2,0-7.2H287.1z"/>
			<path class="st1" d="M315.9,176.8V166c0,0-10.4,2.2-20.4,2.2c-9.9,0-19.6-2.2-19.6-2.2v10.8c0,0,5.1,1.2,11.7,1.8V205
				c0,12.7,8,19.5,19,19.5c4.2,0,6.8-0.6,9.3-1.3v-11.3c-2.1,0.4-4.9,0.9-8.1,0.9c-5.6,0-7.7-3.1-7.7-8.1v-25.9
				C308.5,178.3,315.9,176.8,315.9,176.8z"/>
		</g>
		<g>
			<path class="st0" d="M72.4,178.7c0,0,0,4.9,0,7.2c0,3.8,3,6.8,6.8,6.8s6.8-3,6.8-6.8c0-2.3,0-7.2,0-7.2H72.4z"/>
			<path class="st1" d="M101.3,207.5v-10.8c0,0-10.4,2.2-20.4,2.2c-9.9,0-19.6-2.2-19.6-2.2v10.8c0,0,5.1,1.2,11.7,1.8v26.4
				c0,12.7,8,19.5,19,19.5c4.2,0,6.8-0.6,9.3-1.3v-11.3c-2.1,0.4-4.9,0.9-8.1,0.9c-5.6,0-7.7-3.1-7.7-8.1v-25.9
				C93.8,209.1,101.3,207.5,101.3,207.5z"/>
		</g>
		<g>
			<path class="st0" d="M108,159.8c0,0,0,4.9,0,7.2c0,3.8,3,6.8,6.8,6.8c3.8,0,6.8-3,6.8-6.8c0-2.3,0-7.2,0-7.2H108z"/>
			<path class="st1" d="M136.9,188.6v-10.8c0,0-10.4,2.2-20.4,2.2c-9.9,0-19.6-2.2-19.6-2.2v10.8c0,0,5.1,1.2,11.7,1.8v26.4
				c0,12.7,8,19.5,19,19.5c4.2,0,6.8-0.6,9.3-1.3v-11.3c-2.1,0.4-4.9,0.9-8.1,0.9c-5.6,0-7.7-3.1-7.7-8.1v-25.9
				C129.4,190.2,136.9,188.6,136.9,188.6z"/>
		</g>
		<g>
			<path class="st0" d="M143.6,140.8c0,0,0,4.9,0,7.2c0,3.8,3,6.8,6.8,6.8c3.8,0,6.8-3,6.8-6.8c0-2.3,0-7.2,0-7.2H143.6z"/>
			<path class="st1" d="M172.5,169.7v-10.8c0,0-10.4,2.2-20.4,2.2c-9.9,0-19.6-2.2-19.6-2.2v10.8c0,0,5.1,1.2,11.7,1.8v26.4
				c0,12.7,8,19.5,19,19.5c4.2,0,6.8-0.6,9.3-1.3v-11.3c-2.1,0.4-4.9,0.9-8.1,0.9c-5.6,0-7.7-3.1-7.7-8.1v-25.9
				C165,171.3,172.5,169.7,172.5,169.7z"/>
		</g>
		<g>
			<path class="st0" d="M179.2,121.9c0,0,0,4.9,0,7.2c0,3.8,3,6.8,6.8,6.8s6.8-3,6.8-6.8c0-2.3,0-7.2,0-7.2H179.2z"/>
			<path class="st1" d="M208.1,150.8V140c0,0-10.4,2.2-20.4,2.2c-9.9,0-19.6-2.2-19.6-2.2v10.8c0,0,5.1,1.2,11.7,1.8V179
				c0,12.7,8,19.5,19,19.5c4.2,0,6.8-0.6,9.3-1.3v-11.3c-2.1,0.4-4.9,0.9-8.1,0.9c-5.6,0-7.7-3.1-7.7-8.1v-25.9
				C200.7,152.3,208.1,150.8,208.1,150.8z"/>
		</g>
		<g>
			<path class="st0" d="M214.9,103c0,0,0,4.9,0,7.2c0,3.8,3,6.8,6.8,6.8c3.8,0,6.8-3,6.8-6.8c0-2.3,0-7.2,0-7.2H214.9z"/>
			<path class="st1" d="M243.7,131.8v-10.8c0,0-10.4,2.2-20.4,2.2c-9.9,0-19.6-2.2-19.6-2.2v10.8c0,0,5.1,1.2,11.7,1.8v26.4
				c0,12.7,8,19.5,19,19.5c4.2,0,6.8-0.6,9.3-1.3V167c-2.1,0.4-4.9,0.9-8.1,0.9c-5.6,0-7.7-3.1-7.7-8.1v-25.9
				C236.3,133.4,243.7,131.8,243.7,131.8z"/>
		</g>
		<g>
			<path class="st0" d="M250.5,84.1c0,0,0,4.9,0,7.2c0,3.8,3,6.8,6.8,6.8c3.8,0,6.8-3,6.8-6.8c0-2.3,0-7.2,0-7.2H250.5z"/>
			<path class="st1" d="M279.4,112.9v-10.8c0,0-10.4,2.2-20.4,2.2c-9.9,0-19.6-2.2-19.6-2.2v10.8c0,0,5.1,1.2,11.7,1.8v26.4
				c0,12.7,8,19.5,19,19.5c4.2,0,6.8-0.6,9.3-1.3V148c-2.1,0.4-4.9,0.9-8.1,0.9c-5.6,0-7.7-3.1-7.7-8.1V115
				C271.9,114.5,279.4,112.9,279.4,112.9z"/>
		</g>
		<g>
			<path class="st0" d="M35.8,114.8c0,0,0,4.9,0,7.2c0,3.8,3,6.8,6.8,6.8s6.8-3,6.8-6.8c0-2.3,0-7.2,0-7.2H35.8z"/>
			<path class="st1" d="M64.7,143.7v-10.8c0,0-10.4,2.2-20.4,2.2c-9.9,0-19.6-2.2-19.6-2.2v10.8c0,0,5.1,1.2,11.7,1.8v26.4
				c0,12.7,8,19.5,19,19.5c4.2,0,6.8-0.6,9.3-1.3v-11.3c-2.1,0.4-4.9,0.9-8.1,0.9c-5.6,0-7.7-3.1-7.7-8.1v-25.9
				C57.2,145.3,64.7,143.7,64.7,143.7z"/>
		</g>
		<g>
			<path class="st0" d="M71.4,95.9c0,0,0,4.9,0,7.2c0,3.8,3,6.8,6.8,6.8c3.8,0,6.8-3,6.8-6.8c0-2.3,0-7.2,0-7.2H71.4z"/>
			<path class="st1" d="M100.3,124.8V114c0,0-10.4,2.2-20.4,2.2c-9.9,0-19.6-2.2-19.6-2.2v10.8c0,0,5.1,1.2,11.7,1.8V153
				c0,12.7,8,19.5,19,19.5c4.2,0,6.8-0.6,9.3-1.3v-11.3c-2.1,0.4-4.9,0.9-8.1,0.9c-5.6,0-7.7-3.1-7.7-8.1v-25.9
				C92.9,126.3,100.3,124.8,100.3,124.8z"/>
		</g>
		<g>
			<path class="st0" d="M107,77c0,0,0,4.9,0,7.2c0,3.8,3,6.8,6.8,6.8c3.8,0,6.8-3,6.8-6.8c0-2.3,0-7.2,0-7.2H107z"/>
			<path class="st1" d="M135.9,105.8V95.1c0,0-10.4,2.2-20.4,2.2c-9.9,0-19.6-2.2-19.6-2.2v10.8c0,0,5.1,1.2,11.7,1.8v26.4
				c0,12.7,8,19.5,19,19.5c4.2,0,6.8-0.6,9.3-1.3V141c-2.1,0.4-4.9,0.9-8.1,0.9c-5.6,0-7.7-3.1-7.7-8.1v-25.9
				C128.5,107.4,135.9,105.8,135.9,105.8z"/>
		</g>
		<g>
			<path class="st0" d="M142.7,58.1c0,0,0,4.9,0,7.2c0,3.8,3,6.8,6.8,6.8s6.8-3,6.8-6.8c0-2.3,0-7.2,0-7.2H142.7z"/>
			<path class="st1" d="M171.5,86.9V76.1c0,0-10.4,2.2-20.4,2.2c-9.9,0-19.6-2.2-19.6-2.2v10.8c0,0,5.1,1.2,11.7,1.8v26.4
				c0,12.7,8,19.5,19,19.5c4.2,0,6.8-0.6,9.3-1.3V122c-2.1,0.4-4.9,0.9-8.1,0.9c-5.6,0-7.7-3.1-7.7-8.1V89
				C164.1,88.5,171.5,86.9,171.5,86.9z"/>
		</g>
		<g>
			<path class="st0" d="M178.3,39.1c0,0,0,4.9,0,7.2c0,3.8,3,6.8,6.8,6.8c3.8,0,6.8-3,6.8-6.8c0-2.3,0-7.2,0-7.2H178.3z"/>
			<path class="st1" d="M207.2,68V57.2c0,0-10.4,2.2-20.4,2.2c-9.9,0-19.6-2.2-19.6-2.2V68c0,0,5.1,1.2,11.7,1.8v26.4
				c0,12.7,8,19.5,19,19.5c4.2,0,6.8-0.6,9.3-1.3v-11.3c-2.1,0.4-4.9,0.9-8.1,0.9c-5.6,0-7.7-3.1-7.7-8.1V70
				C199.7,69.6,207.2,68,207.2,68z"/>
		</g>
		<g>
			<path class="st0" d="M213.9,20.2c0,0,0,4.9,0,7.2c0,3.8,3,6.8,6.8,6.8s6.8-3,6.8-6.8c0-2.3,0-7.2,0-7.2H213.9z"/>
			<path class="st1" d="M242.8,49.1V38.3c0,0-10.4,2.2-20.4,2.2c-9.9,0-19.6-2.2-19.6-2.2v10.8c0,0,5.1,1.2,11.7,1.8v26.4
				c0,12.7,8,19.5,19,19.5c4.2,0,6.8-0.6,9.3-1.3V84.2c-2.1,0.4-4.9,0.9-8.1,0.9c-5.6,0-7.7-3.1-7.7-8.1V51.1
				C235.3,50.6,242.8,49.1,242.8,49.1z"/>
		</g>
	</g>
</g>
</svg>
