<?xml version="1.0" encoding="UTF-8"?>
<svg id="Layer_1" xmlns="http://www.w3.org/2000/svg" version="1.1" viewBox="0 0 90 90">
  <!-- Generator: Adobe Illustrator 29.6.0, SVG Export Plug-In . SVG Version: 2.1.1 Build 207)  -->
  <defs>
    <style>
      .st0, .st1 {
        fill: #fff;
      }

      .st0, .st2 {
        stroke: #fff;
        stroke-linecap: round;
        stroke-linejoin: round;
        stroke-width: 2.5px;
      }

      .st2 {
        fill: none;
      }

      .st3 {
        fill: #bd4bf8;
      }
    </style>
  </defs>
  <g id="Layer_2">
    <rect class="st3" width="90" height="90" rx="10" ry="10"/>
  </g>
  <g id="Layer_11" data-name="Layer_1">
    <circle class="st2" cx="30.961" cy="26.332" r="12.683"/>
    <path class="st2" d="M49.897,66.974H12.025c-2.44,0-4.346-2.643-3.863-5.49.127-.712.254-1.449.432-2.135,2.44-10.421,9.786-18.351,18.834-20.003,1.144-.229,2.338-.33,3.533-.33s2.389.102,3.533.33c9.048,1.652,16.394,9.582,18.834,20.003.178.686.305,1.423.432,2.135.483,2.847-1.423,5.49-3.863,5.49Z"/>
    <circle class="st2" cx="59.55" cy="26.332" r="12.683"/>
    <path class="st2" d="M78.486,66.974h-37.871c-2.44,0-4.346-2.643-3.863-5.49.127-.712.254-1.449.432-2.135,2.44-10.421,9.786-18.351,18.834-20.003,1.144-.229,2.338-.33,3.533-.33s2.389.102,3.533.33c9.048,1.652,16.394,9.582,18.834,20.003.178.686.305,1.423.432,2.135.483,2.847-1.423,5.49-3.863,5.49h0Z"/>
    <circle class="st0" cx="44.787" cy="35.859" r="12.683"/>
    <path class="st0" d="M63.723,76.5H25.851c-2.44,0-4.346-2.643-3.863-5.49.127-.712.254-1.449.432-2.135,2.44-10.421,9.786-18.351,18.834-20.003,1.144-.229,2.338-.33,3.533-.33s2.389.102,3.533.33c9.048,1.652,16.394,9.582,18.834,20.003.178.686.305,1.423.432,2.135.483,2.847-1.423,5.49-3.863,5.49Z"/>
    <g>
      <path class="st1" d="M25.851,77.751c-1.427,0-2.758-.646-3.748-1.818-1.157-1.369-1.66-3.287-1.348-5.131l.026-.146c.123-.69.25-1.404.429-2.094,2.567-10.968,10.35-19.189,19.819-20.919,1.157-.231,2.428-.351,3.758-.351s2.601.119,3.778.354c9.448,1.726,17.23,9.947,19.806,20.943.171.657.297,1.366.419,2.052l.026.149c.315,1.854-.188,3.772-1.345,5.142-.99,1.173-2.322,1.818-3.749,1.818H25.851Z"/>
      <path class="st3" d="M44.787,48.542c1.195,0,2.389.102,3.533.33,9.048,1.652,16.394,9.582,18.834,20.003.178.686.305,1.423.432,2.135.483,2.847-1.423,5.49-3.863,5.49H25.851c-2.44,0-4.346-2.643-3.863-5.49.127-.712.254-1.449.432-2.135,2.44-10.421,9.786-18.351,18.834-20.003,1.144-.229,2.338-.33,3.533-.33M44.787,46.042c-1.413,0-2.766.128-4.023.379-9.909,1.809-18.076,10.39-20.771,21.856-.186.722-.314,1.444-.439,2.144l-.027.15c-.377,2.223.23,4.521,1.621,6.168,1.214,1.437,2.928,2.262,4.703,2.262h37.871c1.775,0,3.489-.824,4.703-2.262,1.391-1.647,1.998-3.945,1.625-6.147l-.03-.171c-.125-.699-.253-1.422-.439-2.144-2.695-11.466-10.862-20.047-20.812-21.864-1.216-.244-2.569-.371-3.982-.371h0Z"/>
    </g>
    <g>
      <path class="st1" d="M44.787,49.792c-7.683,0-13.933-6.251-13.933-13.934s6.25-13.933,13.933-13.933,13.933,6.25,13.933,13.933-6.25,13.934-13.933,13.934Z"/>
      <path class="st3" d="M44.787,23.175c7.005,0,12.683,5.678,12.683,12.683s-5.678,12.683-12.683,12.683-12.683-5.678-12.683-12.683,5.678-12.683,12.683-12.683M44.787,20.675c-8.372,0-15.183,6.811-15.183,15.183s6.811,15.183,15.183,15.183,15.183-6.811,15.183-15.183-6.811-15.183-15.183-15.183h0Z"/>
    </g>
  </g>
</svg>