<?xml version="1.0" encoding="UTF-8"?>
<svg id="Layer_1" xmlns="http://www.w3.org/2000/svg" version="1.1" viewBox="0 0 90 90">
  <!-- Generator: Adobe Illustrator 29.6.0, SVG Export Plug-In . SVG Version: 2.1.1 Build 207)  -->
  <defs>
    <style>
      .st0, .st1 {
        stroke: #fff;
        stroke-linecap: round;
        stroke-linejoin: round;
        stroke-width: 2.5px;
      }

      .st0, .st2 {
        fill: #bd4bf8;
      }

      .st3 {
        fill: #fff;
      }

      .st1 {
        fill: none;
      }
    </style>
  </defs>
  <g id="Layer_2">
    <rect class="st2" width="90" height="90" rx="10" ry="10"/>
  </g>
  <g id="Layer_11" data-name="Layer_1">
    <path class="st1" d="M68.473,25.319H15.078c-3.175,0-5.749,2.574-5.749,5.749v27.901c0,3.175,2.574,5.749,5.749,5.749h1.204v11.588l12.167-11.588h40.024c3.175,0,5.749-2.574,5.749-5.749v-27.901c0-3.175-2.574-5.749-5.749-5.749Z"/>
    <g>
      <path class="st2" d="M79.27,7.127c.604,0,1.213.18,1.743.556l2.168,1.536c1.362.964,1.684,2.85.719,4.211l-28.421,40.13-9.043,4.49,1.944-9.518,28.421-40.13c.589-.832,1.521-1.275,2.468-1.275M79.27,4.627c-1.789,0-3.475.871-4.508,2.33l-28.421,40.13c-.2.283-.34.605-.409.945l-1.944,9.518c-.191.936.168,1.899.925,2.482.446.343.983.518,1.525.518.379,0,.759-.086,1.111-.261l9.043-4.49c.37-.184.689-.457.928-.794l28.421-40.13c1.759-2.484,1.17-5.937-1.315-7.697l-2.168-1.536c-.938-.664-2.041-1.016-3.188-1.016h0Z"/>
      <line class="st1" x1="19.234" y1="38.02" x2="50.297" y2="38.02"/>
      <line class="st1" x1="19.234" y1="51.717" x2="45.723" y2="51.717"/>
    </g>
    <path class="st0" d="M51.457,52.05l6.849-4.193,21.867-30.877c.742-1.048.494-2.498-.554-3.24l-1.668-1.182c-1.048-.742-2.498-.494-3.24.554l-21.867,30.877-1.387,8.062h0Z"/>
    <polygon class="st3" points="76.87 21.644 71.823 17.493 75.301 11.397 80.601 14.991 76.87 21.644"/>
    <line class="st1" x1="53.891" y1="42.828" x2="58.981" y2="46.823"/>
  </g>
</svg>