<?xml version="1.0" encoding="UTF-8"?>
<svg id="Layer_1" xmlns="http://www.w3.org/2000/svg" version="1.1" viewBox="0 0 90 90">
  <!-- Generator: Adobe Illustrator 29.6.0, SVG Export Plug-In . SVG Version: 2.1.1 Build 207)  -->
  <defs>
    <style>
      .st0 {
        fill: #fff;
      }

      .st1 {
        fill: none;
        stroke: #fff;
        stroke-linecap: round;
        stroke-linejoin: round;
        stroke-width: 2.5px;
      }

      .st2 {
        fill: #bd4bf8;
      }
    </style>
  </defs>
  <g id="Layer_2">
    <rect class="st2" width="90" height="90" rx="10" ry="10"/>
  </g>
  <g id="Layer_11" data-name="Layer_1">
    <polyline class="st1" points="10.515 19.317 20.368 19.317 25.294 58.729 69.632 58.729 79.485 26.707 22.831 26.707"/>
    <path class="st1" d="M69.632,68.582H25.294c-2.721,0-4.926-2.206-4.926-4.926h0c0-2.721,2.206-4.926,4.926-4.926h44.338"/>
    <circle class="st0" cx="33.254" cy="73.079" r="4.253"/>
    <circle class="st0" cx="61.989" cy="73.079" r="4.253"/>
    <g>
      <polygon class="st0" points="35.248 38.732 43.779 38.732 43.779 10.147 55.298 10.147 55.298 38.732 63.83 38.732 49.539 53.023 35.248 38.732"/>
      <path class="st2" d="M54.048,11.398v28.584h6.764l-11.274,11.274-11.274-11.274h6.764V11.398h9.019M56.548,8.898h-14.019v28.584h-10.3l4.268,4.268,11.274,11.274,1.768,1.768,1.768-1.768,11.274-11.274,4.268-4.268h-10.3V8.898h-.001Z"/>
    </g>
  </g>
</svg>