<?xml version="1.0" encoding="UTF-8"?>
<svg xmlns="http://www.w3.org/2000/svg" version="1.1" viewBox="0 0 90 90">
  <!-- Generator: Adobe Illustrator 29.6.0, SVG Export Plug-In . SVG Version: 2.1.1 Build 207)  -->
  <defs>
    <style>
      .st0 {
        fill: #fff;
      }

      .st0, .st1, .st2 {
        stroke-linecap: round;
        stroke-width: 2.5px;
      }

      .st0, .st2 {
        stroke: #fff;
        stroke-linejoin: round;
      }

      .st1 {
        stroke: #bd4bf8;
        stroke-miterlimit: 10;
      }

      .st1, .st2 {
        fill: none;
      }

      .st3 {
        fill: #bd4bf8;
      }
    </style>
  </defs>
  <g id="Layer_2">
    <rect class="st3" width="90" height="90" rx="10" ry="10"/>
  </g>
  <g id="Layer_1">
    <path class="st0" d="M70.809,71.725l-2.499,1.666c-4.374,2.918-9.906,3.496-14.797,1.54-17.704-7.081-31.92-21.297-39.001-39.001-1.954-4.886-1.378-10.418,1.54-14.797l3.803-5.707c1.051-1.576,2.74-2.529,4.634-2.61.088-.004.177-.008.265-.008,1.792,0,3.449.795,4.577,2.207l4.741,5.927c1.591,1.988,1.712,4.747.299,6.867l-4.331,6.496c-.284.426-.386.947-.286,1.448,2.423,12.116,11.819,21.511,23.935,23.935.506.096,1.024-.002,1.448-.286l1.029-.686M56.166,58.715l5.467-3.645c2.116-1.414,4.884-1.292,6.867.299l5.927,4.741c1.48,1.182,2.282,2.949,2.199,4.843-.081,1.894-1.034,3.583-2.61,4.634l-3.208,2.138"/>
    <path class="st2" d="M47.152,24.04c.58-.063,1.17-.096,1.767-.096,8.87,0,16.061,7.191,16.061,16.061,0,.939-.081,1.86-.235,2.755"/>
    <path class="st2" d="M47.568,13.549c17.413-.74,29.064,13.533,27.319,29.212"/>
    <line class="st1" x1="10.236" y1="11.602" x2="33.276" y2="36.616"/>
    <line class="st1" x1="51.878" y1="54.905" x2="76.957" y2="77.188"/>
  </g>
</svg>