<?xml version="1.0" encoding="UTF-8"?>
<svg id="Layer_1" xmlns="http://www.w3.org/2000/svg" version="1.1" viewBox="0 0 90 90">
  <!-- Generator: Adobe Illustrator 29.6.0, SVG Export Plug-In . SVG Version: 2.1.1 Build 207)  -->
  <defs>
    <style>
      .st0 {
        stroke-linecap: round;
        stroke-width: 2.5px;
      }

      .st0, .st1 {
        fill: none;
        stroke: #fff;
        stroke-linejoin: round;
      }

      .st2 {
        fill: #bd4bf8;
      }

      .st1 {
        stroke-width: 4px;
      }
    </style>
  </defs>
  <g id="Layer_2">
    <rect class="st2" width="90" height="90" rx="10" ry="10"/>
  </g>
  <g id="Layer_11" data-name="Layer_1">
    <path class="st0" d="M63.993,42.581v-7.514l-8.588-2.454c-.231-.658-.498-1.298-.798-1.92l4.339-7.81-5.314-5.314-7.81,4.339c-.622-.3-1.262-.567-1.92-.797l-2.454-8.588h-7.514l-2.454,8.588c-.658.231-1.298.498-1.92.797l-7.81-4.339-5.314,5.314,4.339,7.81c-.3.623-.567,1.262-.798,1.92l-8.588,2.454v7.514l8.588,2.454c.231.658.498,1.298.798,1.92l-4.339,7.81,5.314,5.314,7.81-4.339c.623.3,1.262.567,1.92.798l2.454,8.588h7.514l2.454-8.588c.658-.231,1.298-.498,1.92-.798l7.81,4.339,5.314-5.314-4.339-7.81c.3-.623.567-1.262.798-1.92,0,0,8.588-2.454,8.588-2.454Z"/>
    <circle class="st0" cx="37.692" cy="38.824" r="10.06"/>
    <g>
      <circle class="st1" cx="68.28" cy="67.411" r="6.861"/>
      <line class="st1" x1="78.611" y1="63.042" x2="74.599" y2="64.739"/>
      <line class="st1" x1="61.96" y1="70.084" x2="58.041" y2="71.742"/>
      <line class="st1" x1="72.537" y1="77.477" x2="70.952" y2="73.731"/>
      <line class="st1" x1="65.607" y1="61.092" x2="63.993" y2="57.275"/>
      <line class="st1" x1="78.611" y1="71.601" x2="74.638" y2="69.99"/>
      <line class="st1" x1="61.921" y1="64.833" x2="57.784" y2="63.155"/>
      <line class="st1" x1="64.197" y1="77.477" x2="65.701" y2="73.769"/>
      <line class="st1" x1="70.858" y1="61.053" x2="72.537" y2="56.914"/>
    </g>
  </g>
</svg>