<?xml version="1.0" encoding="UTF-8"?>
<svg id="Layer_1" xmlns="http://www.w3.org/2000/svg" version="1.1" viewBox="0 0 90 90">
  <!-- Generator: Adobe Illustrator 29.6.0, SVG Export Plug-In . SVG Version: 2.1.1 Build 207)  -->
  <defs>
    <style>
      .st0, .st1, .st2 {
        fill: #fff;
      }

      .st0, .st1, .st3 {
        stroke: #fff;
        stroke-linejoin: round;
        stroke-width: 2.5px;
      }

      .st0, .st3 {
        stroke-linecap: round;
      }

      .st4 {
        isolation: isolate;
      }

      .st3 {
        fill: none;
      }

      .st5 {
        fill: #bd4bf8;
      }
    </style>
  </defs>
  <g id="Layer_2">
    <rect class="st5" width="90" height="90" rx="10" ry="10"/>
  </g>
  <g id="Layer_11">
    <g class="st4">
      <g class="st4">
        <g class="st4">
          <path class="st2" d="M20.941,48.687c0,1.494-.022,1.725.805,1.84l.46.068v1.38h-6.691v-1.402l.46-.069c.828-.138.874-.276.874-1.816v-10.209c0-1.334-.138-1.587-.92-1.701l-.391-.069v-1.38h6.622v1.38l-.482.069c-.69.092-.736.367-.736,1.701v10.209Z"/>
          <path class="st2" d="M33.407,49.192c0,1.034.229,1.149.689,1.195l1.932.185v1.402h-9.359v-1.402l1.932-.185c.46-.046.69-.161.69-1.195v-11.934h-1.288c-.92,0-1.334.253-1.541,1.035l-.437,1.701h-2.254l.253-4.668h14.648l.253,4.668h-2.254l-.437-1.655c-.207-.782-.621-1.081-1.541-1.081h-1.287v11.934Z"/>
          <path class="st2" d="M49.415,40.041l-.322-1.494c-.207-.943-.506-1.288-2.253-1.288-1.909,0-2.736.782-2.736,1.84,0,3.656,8.301,1.494,8.301,7.587,0,3.702-3.081,5.565-6.737,5.565-2.346,0-4.438-.483-5.335-1.059l.391-4.185h2.461l.253,1.587c.229.988.713,1.379,2.483,1.379,2.047,0,2.852-.873,2.852-2.207,0-3.379-8.232-1.311-8.232-7.404,0-3.564,2.621-5.335,6.277-5.335,2.023,0,3.955.437,5.013.988l-.229,4.277-2.185-.253Z"/>
          <path class="st2" d="M74.528,36.707l-.483.069c-.689.092-.735.367-.735,1.701v10.209c0,1.494-.023,1.725.805,1.84l.46.068v1.38h-6.53v-1.402l.46-.069c.827-.138.873-.276.873-1.816v-9.244h-.138l-3.725,12.532h-3.863l-3.68-12.532h-.138v9.312c0,1.449-.023,1.679.805,1.794l.46.069v1.356h-4.967v-1.38l.46-.068c.805-.139.874-.276.874-1.771v-10.301c0-1.333-.139-1.586-.92-1.701l-.392-.069v-1.356h6.715l3.403,12.647h.161l3.61-12.647h6.484v1.38Z"/>
        </g>
      </g>
    </g>
    <path class="st1" d="M63.212,22.001l4.405-4.146c.232-.218.612-.123.713.18l2.637,7.912-7.626-3.226c-.29-.123-.358-.503-.129-.719h0Z"/>
    <path class="st3" d="M20.104,24.393c5.853-7.294,14.843-11.963,24.922-11.963,9.64,0,18.283,4.271,24.139,11.025"/>
    <path class="st0" d="M63.325,66.826l4.278,4.026c.232.218.612.123.713-.18l2.637-7.912-7.626,3.226c-.29.123-.358.503-.129.719,0,0,.127.121.127.121Z"/>
    <path class="st3" d="M20.104,64.343c5.853,7.294,14.843,11.963,24.922,11.963,9.64,0,18.283-4.271,24.139-11.025"/>
  </g>
</svg>