<?xml version="1.0" encoding="UTF-8"?>
<svg id="Layer_1" xmlns="http://www.w3.org/2000/svg" version="1.1" viewBox="0 0 90 90">
  <!-- Generator: Adobe Illustrator 29.6.0, SVG Export Plug-In . SVG Version: 2.1.1 Build 207)  -->
  <defs>
    <style>
      .st0 {
        isolation: isolate;
      }

      .st1 {
        fill: #fff;
      }

      .st2 {
        fill: none;
        stroke: #fff;
        stroke-linecap: round;
        stroke-linejoin: round;
        stroke-width: 2.5px;
      }

      .st3 {
        fill: #bd4bf8;
      }
    </style>
  </defs>
  <g id="Layer_2">
    <rect class="st3" width="90" height="90" rx="10" ry="10"/>
  </g>
  <g id="Layer_11" data-name="Layer_1">
    <path class="st2" d="M45,12.419c-17.642,0-31.943,14.302-31.943,31.943,0,6.542,1.974,12.619,5.348,17.683l-5.348,14.261,14.261-5.348c5.064,3.374,11.141,5.348,17.683,5.348,17.642,0,31.943-14.302,31.943-31.943s-14.302-31.943-31.943-31.943h0Z"/>
    <g class="st0">
      <g class="st0">
        <path class="st1" d="M38.924,47.239c-1.221-8.238,8.137-8.137,8.137-13.426,0-2.085-1.423-3.255-3.56-3.255-3.051,0-5.798,1.373-7.832,2.898l-2.39-3.661c2.136-1.933,6.408-4.73,12.613-4.73,6.662,0,10.426,3.51,10.426,8.545,0,10.477-11.24,9.001-11.24,16.478v2.187h-5.391l-.763-5.035ZM42.484,63.158c-2.746,0-4.577-1.424-4.577-4.272s1.831-4.424,4.577-4.424c2.797,0,4.627,1.576,4.627,4.424s-1.779,4.272-4.627,4.272Z"/>
      </g>
    </g>
  </g>
</svg>