<?xml version="1.0" encoding="UTF-8"?>
<svg xmlns="http://www.w3.org/2000/svg" version="1.1" viewBox="0 0 90 90">
  <!-- Generator: Adobe Illustrator 29.6.0, SVG Export Plug-In . SVG Version: 2.1.1 Build 207)  -->
  <defs>
    <style>
      .st0 {
        fill: #fff;
      }

      .st1 {
        fill: none;
        stroke: #fff;
      }

      .st1, .st2 {
        stroke-linecap: round;
        stroke-linejoin: round;
        stroke-width: 2.5px;
      }

      .st2 {
        stroke: #bd4bf8;
      }

      .st2, .st3 {
        fill: #bd4bf8;
      }
    </style>
  </defs>
  <g id="Layer_2">
    <rect class="st3" width="90" height="90" rx="10" ry="10"/>
  </g>
  <g id="Layer_1">
    <path class="st1" d="M53.407,69.204v-1.526c0-2.656,1.299-5.096,3.476-6.526,5.998-3.938,9.579-10.561,9.579-17.717,0-6.417-2.859-12.42-7.844-16.471-4.986-4.048-11.515-5.6-17.929-4.264-8.086,1.688-14.603,8.274-16.221,16.39-1.702,8.54,1.823,17.158,8.98,21.953,2.28,1.527,3.641,4.009,3.641,6.64v1.304M37.089,69.204h0c-.902,0-1.632.73-1.632,1.632v3.229c0,2.719,2.212,4.93,4.93,4.93h9.721c2.719,0,4.93-2.212,4.93-4.93v-3.229c0-.902-.73-1.632-1.632-1.632h0"/>
    <line class="st1" x1="37.089" y1="69.204" x2="53.407" y2="69.204"/>
    <line class="st1" x1="45.254" y1="9.731" x2="45.254" y2="15.19"/>
    <line class="st1" x1="18.998" y1="21.056" x2="22.858" y2="24.916"/>
    <line class="st1" x1="67.649" y1="24.916" x2="71.509" y2="21.056"/>
    <line class="st1" x1="80.601" y1="45.978" x2="75.142" y2="45.978"/>
    <line class="st1" x1="15.621" y1="45.978" x2="10.162" y2="45.978"/>
    <path class="st0" d="M58.332,45.712v-3.738l-4.272-1.221c-.115-.327-.248-.646-.397-.955l2.158-3.885-2.643-2.643-3.885,2.158c-.31-.149-.628-.282-.955-.397l-1.221-4.272h-3.738l-1.221,4.272c-.327.115-.646.248-.955.397l-3.885-2.158-2.643,2.643,2.158,3.885c-.149.31-.282.628-.397.955l-4.272,1.221v3.738l4.272,1.221c.115.327.248.646.397.955l-2.158,3.885,2.643,2.643,3.885-2.158c.31.149.628.282.955.397l1.221,4.272h3.738l1.221-4.272c.327-.115.646-.248.955-.397l3.885,2.158,2.643-2.643-2.158-3.885c.149-.31.282-.628.397-.955l4.272-1.221Z"/>
    <circle class="st2" cx="45.248" cy="43.843" r="5.004"/>
  </g>
</svg>