<?xml version="1.0" encoding="UTF-8"?>
<svg xmlns="http://www.w3.org/2000/svg" version="1.1" viewBox="0 0 90 90">
  <!-- Generator: Adobe Illustrator 29.6.0, SVG Export Plug-In . SVG Version: 2.1.1 Build 207)  -->
  <defs>
    <style>
      .st0 {
        fill: #fff;
      }

      .st1 {
        fill: none;
        stroke: #fff;
      }

      .st1, .st2 {
        stroke-linecap: round;
        stroke-linejoin: round;
        stroke-width: 2.5px;
      }

      .st2 {
        stroke: #bd4bf8;
      }

      .st2, .st3 {
        fill: #bd4bf8;
      }
    </style>
  </defs>
  <g id="Layer_2">
    <rect class="st3" width="90" height="90" rx="10" ry="10"/>
  </g>
  <g id="Layer_1">
    <rect class="st1" x="23.09" y="52.554" width="8.986" height="23.05" transform="translate(-28.344 22.376) rotate(-30)"/>
    <path class="st1" d="M27.583,53.805c2.438-3.105,7.556-5.3,11.254-1.371,3.421,3.634,12.037,1.66,14.577,1.66,5.469,0,4.981,5.958,0,5.958h-8.986"/>
    <path class="st1" d="M36.838,69.598c1.209-1.889,2.947-2.569,6.421-2.415,2.725.121,9.666,1.367,12.497.179,4.234-1.777,11.702-10.314,14.066-12.974,2.571-2.893-.941-7.984-4.493-4.18-3.711,3.975-9.203,9.035-9.203,9.035"/>
    <path class="st0" d="M67.188,31.652v-4.894l-5.593-1.598c-.15-.429-.324-.845-.519-1.251l2.826-5.086-3.461-3.461-5.086,2.826c-.405-.195-.822-.369-1.251-.519l-1.598-5.593h-4.894l-1.598,5.593c-.429.15-.845.324-1.251.519l-5.086-2.826-3.461,3.461,2.826,5.086c-.195.405-.369.822-.519,1.251l-5.593,1.598v4.894l5.593,1.598c.15.429.324.845.519,1.251l-2.826,5.086,3.461,3.461,5.086-2.826c.405.195.822.369,1.251.519l1.598,5.593h4.894l1.598-5.593c.429-.15.845-.324,1.251-.519l5.086,2.826,3.461-3.461-2.826-5.086c.195-.405.369-.822.519-1.251l5.593-1.598Z"/>
    <circle class="st2" cx="50.059" cy="29.205" r="6.552"/>
  </g>
</svg>