<?xml version="1.0" encoding="UTF-8"?>
<svg xmlns="http://www.w3.org/2000/svg" version="1.1" viewBox="0 0 90 90">
  <!-- Generator: Adobe Illustrator 29.6.0, SVG Export Plug-In . SVG Version: 2.1.1 Build 207)  -->
  <defs>
    <style>
      .st0 {
        fill: #fff;
      }

      .st0, .st1, .st2 {
        stroke: #fff;
        stroke-miterlimit: 10;
        stroke-width: 2.5px;
      }

      .st1, .st2 {
        fill: none;
      }

      .st2 {
        stroke-linecap: round;
      }

      .st3 {
        fill: #bd4bf8;
      }
    </style>
  </defs>
  <g id="Layer_2">
    <rect class="st3" width="90" height="90" rx="10" ry="10"/>
  </g>
  <g id="Layer_1">
    <path class="st2" d="M64.78,25.343c-2.034.522-4.305.144-6.024.053-.997-.053-6.63-2.464-9.27-2.464s-9.717,1.735-12.439,3.462c-1.532.972-2.288,5.867-2.582,7.217s-2.847,7.108-.763,8.097c1.628.773,8.127-.458,9.81-7.721.054-.231.312-.361.514-.236,1.288.799,3.034.75,4.81.473.186-.029.371.012.521.126,2.648,2,17.351,13.282,18.96,14.547,3.96,3.111.828,9.754-4.34,6.675-1.834-1.093-9.713-6.987-9.713-6.987"/>
    <path class="st2" d="M64.68,55.933c1.622,3.288-1.295,7.661-5.675,5.052-1.382-.823-6.094-4.298-8.481-6.07"/>
    <path class="st2" d="M59.553,61.779c.646,3.073-2.106,6.352-6.035,4.011-.998-.595-3.522-2.419-5.951-4.204"/>
    <path class="st2" d="M52.822,65.642c.646,3.073-2.106,6.352-6.035,4.011-.631-.376-2.773-1.951-4.323-3.068"/>
    <rect class="st2" x="35.782" y="59.236" width="6.293" height="11.476" rx="3.147" ry="3.147" transform="translate(48.983 -10.099) rotate(38.556)"/>
    <rect class="st2" x="21.603" y="44.82" width="6.293" height="11.476" rx="3.147" ry="3.147" transform="translate(36.907 -4.404) rotate(38.556)"/>
    <rect class="st2" x="31.186" y="53.474" width="6.529" height="13.564" rx="3.242" ry="3.242" transform="translate(45.066 -8.337) rotate(38.556)"/>
    <rect class="st2" x="26.108" y="47.249" width="7.177" height="15.717" rx="3.533" ry="3.533" transform="translate(40.821 -6.496) rotate(38.556)"/>
    <path class="st2" d="M21.251,49.771c-.859-2.199-4.813-4.99-5.511-5.455"/>
    <path class="st2" d="M26.437,25.498c3.697,1.92,5.404-.356,9.426,1.92"/>
    <path class="st1" d="M68.766,49.29c1.53-2.217,2.675-4.169,6.135-5.347"/>
    <rect class="st0" x="68.903" y="18.318" width="9.289" height="27.693" rx="1.619" ry="1.619" transform="translate(-6.551 37.454) rotate(-27.399)"/>
    <rect class="st0" x="11.808" y="18.318" width="9.289" height="27.693" rx="1.619" ry="1.619" transform="translate(16.647 -3.963) rotate(27.399)"/>
  </g>
</svg>