<?xml version="1.0" encoding="UTF-8"?>
<svg id="Layer_1" xmlns="http://www.w3.org/2000/svg" version="1.1" viewBox="0 0 90 90">
  <!-- Generator: Adobe Illustrator 29.6.0, SVG Export Plug-In . SVG Version: 2.1.1 Build 207)  -->
  <defs>
    <style>
      .st0, .st1 {
        stroke-miterlimit: 10;
      }

      .st0, .st1, .st2 {
        stroke: #fff;
        stroke-width: 2.5px;
      }

      .st0, .st3 {
        fill: #bd4bf8;
      }

      .st4 {
        fill: #fff;
      }

      .st1 {
        stroke-linecap: round;
      }

      .st1, .st2 {
        fill: none;
      }

      .st2 {
        stroke-linejoin: round;
      }
    </style>
  </defs>
  <g id="Layer_2">
    <rect class="st3" width="90" height="90" rx="10" ry="10"/>
    <path class="st0" d="M46.666,77.378c-1.699,0-3.039-1.538-2.707-3.203,1.488-7.463,8.075-13.087,15.976-13.087s14.487,5.624,15.976,13.087c.332,1.666-1.008,3.203-2.707,3.203,0,0-26.538,0-26.538,0Z"/>
  </g>
  <g id="Layer_11" data-name="Layer_1">
    <g>
      <rect class="st4" x="46.585" y="36.312" width="6.341" height="11.288" rx=".699" ry=".699"/>
      <rect class="st2" x="18.524" y="19.823" width="42.74" height="32.978"/>
      <path class="st3" d="M59.942,43.802c5.042,0,9.129,4.087,9.129,9.129s-4.087,9.129-9.129,9.129-9.129-4.087-9.129-9.129,4.087-9.129,9.129-9.129M59.942,41.302c-6.412,0-11.629,5.217-11.629,11.629s5.217,11.629,11.629,11.629,11.629-5.217,11.629-11.629-5.217-11.629-11.629-11.629h0Z"/>
      <rect class="st2" x="14.039" y="13.491" width="50.391" height="6.332"/>
      <rect class="st4" x="26.862" y="25.025" width="6.341" height="22.575" rx=".699" ry=".699"/>
      <rect class="st4" x="36.724" y="29.138" width="6.341" height="18.461" rx=".699" ry=".699"/>
      <line class="st1" x1="32.362" y1="61.088" x2="36.921" y2="53.48"/>
      <line class="st1" x1="48.605" y1="61.088" x2="44.046" y2="53.48"/>
    </g>
    <circle class="st0" cx="59.935" cy="52.943" r="8.145"/>
  </g>
</svg>